<?xml version="1.0" standalone="no"?>
<!DOCTYPE svg PUBLIC "-//W3C//DTD SVG 20010904//EN"
 "http://www.w3.org/TR/2001/REC-SVG-20010904/DTD/svg10.dtd">
<svg version="1.0" xmlns="http://www.w3.org/2000/svg"
 width="900.000000pt" height="900.000000pt" viewBox="0 0 900.000000 900.000000"
 preserveAspectRatio="xMidYMid meet">

<g transform="translate(0.000000,900.000000) scale(0.100000,-0.100000)"
fill="#000000" stroke="none">
<path d="M4445 7940 c-22 -11 -119 -54 -215 -96 -96 -42 -209 -91 -250 -109
-41 -18 -165 -72 -275 -120 -110 -49 -240 -106 -290 -127 -124 -55 -215 -94
-390 -171 -82 -36 -231 -101 -330 -144 -99 -44 -319 -140 -488 -214 l-308
-134 4 -1355 c3 -1330 4 -1358 25 -1508 102 -713 398 -1320 886 -1820 134
-137 270 -256 405 -352 218 -157 1282 -851 1293 -844 47 28 1098 713 1198 782
732 498 1233 1297 1360 2172 36 248 40 407 40 1681 l0 1247 -42 17 c-24 9
-398 172 -833 362 -434 190 -819 358 -855 373 -36 16 -141 62 -235 103 -445
195 -638 277 -648 276 -7 0 -30 -9 -52 -19z m146 -501 c121 -53 243 -107 294
-129 44 -20 394 -174 580 -255 66 -29 199 -88 295 -130 96 -43 229 -101 295
-130 461 -202 562 -248 582 -261 l23 -14 0 -1053 c0 -1309 -7 -1438 -85 -1754
-119 -482 -348 -898 -690 -1252 -126 -130 -243 -234 -360 -318 -98 -71 -1003
-659 -1023 -666 -5 -1 -78 43 -163 98 -585 378 -823 535 -893 588 -549 414
-916 998 -1051 1672 -48 240 -48 238 -52 1497 l-4 1198 58 26 c32 14 87 39
123 54 80 35 184 80 455 200 116 51 244 107 285 125 84 36 605 266 985 434
138 61 251 111 251 111 1 0 44 -18 95 -41z"/>
</g>
</svg>
